<?xml version="1.0" standalone="no"?>
<!DOCTYPE svg PUBLIC "-//W3C//DTD SVG 20010904//EN"
 "http://www.w3.org/TR/2001/REC-SVG-20010904/DTD/svg10.dtd">
<svg version="1.0" xmlns="http://www.w3.org/2000/svg"
 width="75.000000pt" height="75.000000pt" viewBox="0 0 75.000000 75.000000"
 preserveAspectRatio="xMidYMid meet">
<metadata>
Created by potrace 1.14, written by Peter Selinger 2001-2017
</metadata>
<g transform="translate(0.000000,75.000000) scale(0.100000,-0.100000)"
fill="#000000" stroke="none">
<path d="M265 734 c-240 -77 -339 -359 -199 -570 86 -130 260 -193 409 -149
248 72 352 356 209 571 -41 61 -83 95 -161 131 -72 33 -184 41 -258 17z m171
-15 c191 -35 317 -215 283 -404 -34 -191 -215 -318 -403 -284 -149 27 -259
136 -285 284 -33 183 87 362 269 401 71 16 67 16 136 3z"/>
<path d="M370 460 c0 -5 5 -10 10 -10 6 0 10 5 10 10 0 6 -4 10 -10 10 -5 0
-10 -4 -10 -10z"/>
<path d="M375 413 c-6 -2 -9 -21 -7 -43 2 -23 -1 -47 -8 -55 -10 -13 -9 -15
11 -15 22 0 24 3 21 48 -4 64 -5 69 -17 65z"/>
</g>
</svg>
